<svg width="38" height="38" viewBox="0 0 38 38" fill="none" xmlns="http://www.w3.org/2000/svg">
<path d="M11.8145 17.6552V11.4886C11.8125 9.57697 12.521 7.73285 13.8022 6.31421C15.0835 4.89557 16.8462 4.00362 18.7481 3.8115C20.65 3.61939 22.5555 4.14083 24.0946 5.27458C25.6336 6.40834 26.6966 8.07353 27.077 9.94689V17.6552" stroke="#BD00FF" stroke-width="4" stroke-linecap="round" stroke-linejoin="round"/>
<path d="M30.2375 17.6552H8.65413C6.95126 17.6552 5.5708 19.0357 5.5708 20.7385V31.5302C5.5708 33.2331 6.95126 34.6135 8.65413 34.6135H30.2375C31.9403 34.6135 33.3208 33.2331 33.3208 31.5302V20.7385C33.3208 19.0357 31.9403 17.6552 30.2375 17.6552Z" stroke="#BD00FF" stroke-width="4" stroke-linecap="round" stroke-linejoin="round"/>
</svg>
